HIERARCHY
ROOT Hips
{
	OFFSET 0.00 0.00 0.00
	CHANNELS 6 Xposition Yposition Zposition Xrotation Yrotation Zrotation
	JOINT LeftUpLeg
	{
		OFFSET 2.83210 0.00000 0.00000
		CHANNELS 3 Xrotation Yrotation Zrotation
		JOINT LeftLeg
		{
			OFFSET 0.00000 -16.27150 0.00000
			CHANNELS 3 Xrotation Yrotation Zrotation
			JOINT LeftFoot
			{
				OFFSET 0.00000 -14.95190 0.00000
				CHANNELS 3 Xrotation Yrotation Zrotation
				JOINT LeftToeBase
				{
					OFFSET 0.00000 -1.07991 4.03030
					CHANNELS 3 Xrotation Yrotation Zrotation
					End Site
					{
						OFFSET 0.00000 0.00000 2.95275
					}
				}
			}
		}
	}
	JOINT RightUpLeg
	{
		OFFSET -2.83210 0.00000 0.00000
		CHANNELS 3 Xrotation Yrotation Zrotation
		JOINT RightLeg
		{
			OFFSET 0.00000 -16.27150 0.00000
			CHANNELS 3 Xrotation Yrotation Zrotation
			JOINT RightFoot
			{
				OFFSET 0.00000 -14.95190 0.00000
				CHANNELS 3 Xrotation Yrotation Zrotation
				JOINT RightToeBase
				{
					OFFSET 0.00000 -1.07991 4.03030
					CHANNELS 3 Xrotation Yrotation Zrotation
					End Site
					{
						OFFSET 0.00000 0.00000 2.95275
					}
				}
			}
		}
	}
	JOINT Spine
	{
		OFFSET 0.00000 0.03937 0.00000
		CHANNELS 3 Xrotation Yrotation Zrotation
		JOINT Spine1
		{
			OFFSET 0.00000 8.01054 0.00000
			CHANNELS 3 Xrotation Yrotation Zrotation
			JOINT Neck
			{
				OFFSET 0.00000 8.21888 0.00000
				CHANNELS 3 Xrotation Yrotation Zrotation
				JOINT Head
				{
					OFFSET 0.00000 3.25664 0.00000
					CHANNELS 3 Xrotation Yrotation Zrotation
					End Site
					{
						OFFSET 0.00000 4.52755 0.00000
					}
				}
			}
			JOINT LeftShoulder
			{
				OFFSET 0.00000 8.21888 0.00000
				CHANNELS 3 Xrotation Yrotation Zrotation
				JOINT LeftArm
				{
					OFFSET 6.52904 -0.00002 0.00000
					CHANNELS 3 Xrotation Yrotation Zrotation
					JOINT LeftForeArm
					{
						OFFSET 10.44840 -0.00004 0.00000
						CHANNELS 3 Xrotation Yrotation Zrotation
						JOINT LeftHand
						{
							OFFSET 8.94727 -0.00003 0.00000
							CHANNELS 3 Xrotation Yrotation Zrotation
							JOINT LeftHandThumb
							{
								OFFSET 0.00000 0.00000 0.00000
								CHANNELS 3 Xrotation Yrotation Zrotation
								End Site
								{
									OFFSET 0.00000 0.00000 3.93700
								}
							}
							JOINT L_Wrist_End
							{
								OFFSET 3.93700 -0.00001 0.00000
								CHANNELS 3 Xrotation Yrotation Zrotation
							}
						}
					}
				}
			}
			JOINT RightShoulder
			{
				OFFSET 0.00000 8.21888 0.00000
				CHANNELS 3 Xrotation Yrotation Zrotation
				JOINT RightArm
				{
					OFFSET -6.52904 -0.00002 0.00000
					CHANNELS 3 Xrotation Yrotation Zrotation
					JOINT RightForeArm
					{
						OFFSET -10.44840 -0.00004 0.00000
						CHANNELS 3 Xrotation Yrotation Zrotation
						JOINT RightHand
						{
							OFFSET -8.94727 -0.00003 0.00000
							CHANNELS 3 Xrotation Yrotation Zrotation
							JOINT RightHandThumb
							{
								OFFSET 0.00000 0.00000 0.00000
								CHANNELS 3 Xrotation Yrotation Zrotation
								End Site
								{
									OFFSET 0.00000 0.00000 3.93700
								}
							}
							JOINT R_Wrist_End
							{
								OFFSET -5.39369 -0.00002 0.00000
								CHANNELS 3 Xrotation Yrotation Zrotation
							}
						}
					}
				}
			}
		}
	}
}
MOTION
Frames: 19
Frame Time: 0.033332
 -62.7320 32.5818 -2.5112 92.1313 74.3811 -92.3556 -31.6174 9.4967 1.7432 26.0751 -0.0000 0.0000 -2.5357 8.1556 -17.6386 10.9960 0.0000 -0.0000 -10.3281 -0.7045 2.9723 23.9052 -0.0000 0.0000 -9.9198 -18.0665 22.9876 19.5196 0.0000 0.0000 -7.4853 6.8187 -10.0490 9.9132 -2.0362 6.6884 -26.9515 10.7720 -4.0875 -3.2053 -39.9791 -1.1288 13.4397 21.3713 5.4242 -1.5188 -26.2865 -65.3088 -0.0001 -25.1083 -0.0000 -0.5645 -16.2164 2.5540 -0.0000 0.0000 -0.0000 -0.0000 0.0000 -0.0000 12.5386 -6.0275 -1.2312 -26.5428 42.4056 51.5212 -0.0001 15.1376 0.0000 1.5556 -7.0048 7.3677 -0.0000 0.0000 -0.0000 -0.0000 0.0000 -0.0000
 -63.9231 32.3157 -2.5400 101.1400 74.2985 -99.8760 -32.2479 10.7810 -0.3644 24.0221 -0.0000 0.0000 -2.0278 6.8008 -18.0585 10.6291 -0.0000 -0.0000 -8.9373 -4.9953 1.3889 30.5625 -0.0000 0.0000 -6.8563 -14.1276 25.1674 19.5196 -0.0000 -0.0000 -7.4519 7.4651 -10.1073 9.8612 -1.7579 4.7990 -26.7042 8.4093 -5.0932 -2.0257 -40.4508 -0.8335 14.2369 21.8730 4.9252 1.3385 -24.1072 -64.5084 -0.0001 -23.9337 -0.0000 0.4584 -16.8841 5.5932 -0.0000 0.0000 -0.0000 -0.0000 0.0000 -0.0000 12.3578 -5.5466 -2.4157 -29.1739 42.3979 50.9604 -0.0001 15.7535 0.0000 0.7591 -6.3219 5.3669 -0.0000 0.0000 -0.0000 -0.0000 0.0000 -0.0000
 -65.1973 32.0394 -2.5404 110.3664 73.7868 -107.9001 -33.4937 9.4931 -2.6567 22.5328 0.0000 0.0000 -0.3452 7.1626 -18.5978 10.4183 -0.0000 0.0000 -8.1628 -9.0561 0.0302 35.6322 -0.0000 0.0000 -1.0288 -10.3203 26.2576 13.9068 0.0000 -0.0000 -7.5900 8.1521 -9.7536 10.4061 -1.5949 2.4834 -26.5966 6.8892 -4.8829 -1.4932 -42.0389 -1.6689 14.7080 22.8360 4.5855 3.3657 -22.9843 -63.6030 -0.0001 -23.1223 -0.0000 1.3717 -17.6730 6.9864 -0.0000 0.0000 -0.0000 -0.0000 0.0000 -0.0000 12.1638 -5.2486 -2.8308 -32.2938 41.6710 50.6267 -0.0001 16.6394 0.0000 0.6704 -5.5301 3.4951 -0.0000 0.0000 -0.0000 -0.0000 0.0000 -0.0000
 -66.5499 31.8259 -2.4720 117.5275 73.0991 -114.3743 -35.0805 7.5361 -4.4445 20.9228 -0.0000 0.0000 2.4477 8.4531 -18.9661 10.9645 -0.0000 0.0000 -7.7404 -10.6145 -0.5378 36.7985 0.0000 0.0000 0.2621 -8.1033 29.0264 15.4643 0.0000 0.0000 -7.8713 8.9144 -9.8117 11.1952 -1.0643 1.5865 -25.8828 4.8949 -5.2846 -0.9303 -42.9322 -1.8046 15.2863 23.2808 3.7311 4.7603 -23.2119 -62.8262 -0.0001 -21.9643 -0.0000 3.2409 -17.6233 8.0160 -0.0000 -0.0000 0.0000 -0.0000 -0.0000 0.0000 12.1820 -5.1773 -3.3914 -35.8903 40.4985 50.9528 -0.0001 17.5770 0.0000 0.6809 -4.4190 1.2837 -0.0000 0.0000 -0.0000 -0.0000 0.0000 -0.0000
 -67.9552 31.7015 -2.3441 121.7498 73.0573 -118.4100 -35.5079 6.3697 -5.3368 17.6306 0.0000 0.0000 5.0451 10.1008 -17.7707 11.3336 -0.0000 0.0000 -7.6608 -9.9938 -0.3355 34.9062 0.0000 -0.0000 -5.2915 -8.1122 29.1035 15.1326 -0.0000 0.0000 -7.9787 9.7471 -9.6005 12.2204 -0.3979 0.9908 -24.8529 2.9655 -5.9481 -0.1606 -43.2326 -1.0231 15.8186 23.5110 2.8240 5.0576 -23.7966 -62.6860 -0.0001 -20.6435 -0.0000 3.8586 -17.6085 7.1976 -0.0000 0.0000 -0.0000 -0.0000 0.0000 -0.0000 12.3088 -4.8527 -4.4040 -39.9031 38.9945 52.8433 -0.0001 18.4445 0.0000 0.7459 -3.2034 -1.2588 -0.0000 0.0000 -0.0000 -0.0000 0.0000 -0.0000
 -69.3788 31.6528 -2.1445 123.9670 73.5612 -120.9320 -34.5720 6.5142 -5.2271 12.6154 -0.0000 0.0000 5.2456 13.5405 -14.1717 14.4262 0.0000 0.0000 -8.9176 -9.5309 0.7118 35.1208 -0.0000 0.0000 -9.4050 -10.6544 27.2852 19.5196 0.0000 0.0000 -7.7129 10.2929 -9.2974 12.9375 0.1229 0.7560 -23.9115 1.3796 -6.8112 0.9412 -42.9056 0.5745 16.1837 23.8017 1.7074 4.4880 -24.2842 -63.0611 -0.0001 -19.6653 -0.0000 4.6004 -17.5926 7.1050 -0.0000 0.0000 -0.0000 -0.0000 0.0000 -0.0000 11.7179 -4.2185 -5.6915 -42.9661 37.6002 55.9568 -0.0001 19.4301 0.0000 0.0121 -2.0214 -3.0551 -0.0000 0.0000 -0.0000 -0.0000 0.0000 -0.0000
 -70.7301 31.6169 -1.9504 126.1578 73.9779 -123.3325 -32.7744 8.1880 -5.0410 6.9898 0.0000 0.0000 7.9087 15.0739 -11.1625 17.8793 -0.0000 0.0000 -10.2605 -11.8841 1.4481 35.1297 -0.0000 0.0000 -14.2737 -12.8421 21.9783 19.5196 0.0000 0.0000 -7.5432 10.3977 -9.1251 13.4103 0.1691 0.4716 -23.3401 0.1424 -7.8465 2.8731 -42.1436 2.9261 16.5220 23.6990 0.8814 3.1342 -24.8194 -64.0735 -0.0001 -18.8080 -0.0000 4.8499 -18.0413 6.9840 -0.0000 0.0000 -0.0000 -0.0000 0.0000 -0.0000 11.1493 -3.6139 -6.5941 -44.9134 36.9229 59.3388 -0.0001 21.0877 0.0000 -0.0696 -1.5616 -2.9962 -0.0000 0.0000 -0.0000 -0.0000 0.0000 -0.0000
 -71.9917 31.5718 -1.7657 128.1235 74.1022 -125.2576 -31.9724 7.9055 -4.4574 6.5838 0.0000 0.0000 11.7341 16.5832 -8.1478 19.2989 -0.0000 0.0000 -11.5200 -12.6341 1.9453 34.5188 -0.0000 0.0000 -17.5978 -14.3535 19.5801 17.5163 0.0000 -0.0000 -7.5417 10.3309 -9.0586 13.6915 -0.0915 -0.1893 -23.0742 -0.5316 -8.3433 4.3413 -41.7902 4.5834 17.0673 23.2520 -0.0210 1.2833 -26.5099 -64.5090 -0.0001 -18.5436 -0.0000 5.0226 -18.4970 7.2136 -0.0000 0.0000 -0.0000 -0.0000 0.0000 -0.0000 11.0079 -3.5043 -6.6681 -45.6572 37.0345 62.3210 -0.0001 24.6775 0.0000 1.9465 -2.8294 -1.7170 -0.0000 0.0000 -0.0000 -0.0000 0.0000 -0.0000
 -73.2454 31.5970 -1.6329 129.0558 73.5555 -125.5051 -31.7833 7.4855 -4.2443 7.2250 -0.0000 0.0000 12.5439 15.3505 -9.0358 18.1412 0.0000 0.0000 -13.8991 -11.4417 1.4751 34.0949 -0.0000 0.0000 -19.6569 -15.5037 19.3728 19.5196 0.0000 -0.0000 -7.9184 10.2567 -9.2561 14.0427 -0.5433 -1.3246 -23.1210 -1.1983 -8.8295 5.5356 -41.6845 6.1309 17.2296 22.2230 -0.8443 -1.5714 -29.4552 -64.7525 -0.0001 -17.7438 -0.0000 5.4209 -18.8554 7.6425 -0.0000 -0.0000 0.0000 -0.0000 -0.0000 0.0000 11.9058 -4.0009 -5.6852 -45.6068 38.0551 64.0961 -0.0001 29.7988 0.0000 3.7716 -3.4084 -0.9753 -0.0000 0.0000 -0.0000 -0.0000 0.0000 -0.0000
 -74.4433 31.6973 -1.5306 132.4421 72.7953 -128.2127 -31.6771 5.0426 -4.3403 9.4103 -0.0000 0.0000 10.9138 16.1109 -8.3048 16.3734 -0.0000 0.0000 -15.6611 -10.7066 0.7853 33.1290 -0.0000 0.0000 -20.5814 -16.6746 19.9636 19.5196 -0.0000 0.0000 -8.0512 9.8507 -9.2435 14.5299 -1.2968 -2.3759 -23.8537 -1.2359 -9.1684 7.0737 -41.8457 6.8696 17.1496 20.8135 -1.3324 -5.7278 -33.0175 -65.4306 -0.0001 -16.7621 -0.0000 6.6884 -18.7618 8.4455 -0.0000 0.0000 -0.0000 -0.0000 0.0000 -0.0000 12.4026 -4.7307 -5.1977 -43.7688 38.6914 65.9035 -0.0002 35.5408 0.0000 4.8917 -3.7018 -1.9999 -0.0000 0.0000 -0.0000 -0.0000 0.0000 -0.0000
 -75.5980 31.8116 -1.4797 137.3969 71.6235 -132.7127 -31.5267 1.9888 -4.6527 12.4681 -0.0000 0.0000 8.1878 17.3018 -6.7625 14.2927 0.0000 0.0000 -16.9225 -11.2774 -0.0536 31.6899 -0.0000 0.0000 -21.2035 -17.4362 20.0140 19.5196 -0.0000 0.0000 -7.8605 8.9667 -9.1374 14.4035 -2.3048 -2.8124 -24.5423 -0.8027 -9.2792 8.4952 -42.0680 6.6829 16.7989 19.1441 -1.5328 -10.5212 -36.1735 -66.7947 -0.0001 -16.5033 -0.0000 7.2015 -19.0116 8.5002 -0.0000 0.0000 -0.0000 -0.0000 0.0000 -0.0000 12.5855 -5.7304 -5.0782 -40.1269 39.9692 67.0525 -0.0002 40.7442 0.0001 5.9722 -3.3344 -2.8312 -0.0000 0.0000 -0.0000 -0.0000 0.0000 -0.0000
 -76.7518 31.9120 -1.4855 140.8666 70.2512 -135.6798 -30.7784 0.8441 -5.0932 13.8665 -0.0000 0.0000 6.0679 17.4813 -6.1973 13.5251 0.0000 0.0000 -18.2959 -12.1830 -1.0935 29.8461 -0.0000 0.0000 -21.7974 -18.1283 19.3712 19.2432 0.0000 0.0000 -7.7282 8.0754 -9.0399 13.8617 -3.2846 -3.1240 -25.1616 -0.0680 -9.0957 9.6080 -42.4070 6.1815 15.7864 17.4058 -1.3909 -15.6122 -38.6830 -68.8250 -0.0001 -16.9093 -0.0000 7.6231 -19.2134 8.3518 -0.0000 0.0000 -0.0000 -0.0000 0.0000 -0.0000 13.2966 -7.0187 -4.4807 -36.1861 41.6454 67.1246 -0.0002 44.9558 0.0001 7.4960 -3.4713 -3.2164 -0.0000 0.0000 -0.0000 -0.0000 0.0000 -0.0000
 -77.8979 31.9856 -1.4998 141.6709 69.6891 -136.0374 -29.1168 2.1592 -4.9466 13.1422 -0.0000 0.0000 4.9680 15.5985 -7.8953 13.4862 0.0000 0.0000 -19.8458 -11.7975 -1.8238 28.3453 -0.0000 0.0000 -22.1526 -18.9409 18.4798 19.5157 0.0000 0.0000 -7.7085 7.5916 -9.0409 13.3987 -3.7961 -3.2344 -25.5828 0.3031 -9.1592 10.1448 -42.2917 6.1107 14.7435 15.7286 -1.2045 -21.0774 -41.1920 -71.0207 -0.0001 -17.9626 -0.0000 7.5235 -18.9818 8.0813 -0.0000 0.0000 -0.0000 -0.0000 0.0000 -0.0000 13.9309 -8.3931 -3.9051 -31.6259 43.4045 66.4963 -0.0002 48.3676 0.0001 9.2152 -3.9191 -4.5841 -0.0000 0.0000 -0.0000 -0.0000 0.0000 -0.0000
 -79.0708 32.0787 -1.5396 140.7031 69.5901 -134.6915 -27.9037 3.6897 -4.7977 12.3638 0.0000 0.0000 4.8861 13.7153 -10.2939 13.7819 0.0000 0.0000 -22.6381 -10.7908 -2.6861 28.7547 0.0000 0.0000 -21.1231 -19.4383 17.9028 19.5196 -0.0000 0.0000 -7.8834 7.0240 -9.0311 13.0686 -4.3477 -3.0556 -25.3867 1.2857 -8.6336 8.6686 -42.2506 4.9499 14.2197 14.4058 -1.6350 -27.2211 -43.9621 -72.8733 -0.0001 -18.5912 -0.0000 7.2311 -19.6072 7.5504 -0.0000 0.0000 -0.0000 -0.0000 0.0000 -0.0000 14.7939 -9.5732 -3.3446 -27.6513 45.1779 65.5700 -0.0003 50.1289 0.0001 11.1334 -3.3938 -6.2900 -0.0000 0.0000 -0.0000 -0.0000 0.0000 -0.0000
 -80.2033 32.1991 -1.5872 140.9053 69.6241 -134.8725 -27.1126 3.5141 -4.6295 14.6341 -0.0000 0.0000 2.4754 13.6617 -9.6866 13.4503 0.0000 0.0000 -24.4974 -10.2897 -3.1263 28.3132 -0.0000 0.0000 -19.4811 -20.0003 17.1528 19.5196 0.0000 -0.0000 -8.0316 6.0940 -8.8931 13.1157 -5.1363 -2.3370 -25.5642 2.6141 -8.1870 7.6733 -42.0212 3.8213 13.3588 12.8734 -1.1986 -32.9568 -46.0745 -74.9778 -0.0001 -19.3033 -0.0000 7.3037 -19.2672 6.5994 -0.0000 -0.0000 0.0000 -0.0000 -0.0000 0.0000 15.3604 -10.6719 -2.9101 -24.2244 45.8434 65.2267 -0.0003 50.3037 0.0001 14.2585 -3.1845 -8.5685 -0.0000 0.0000 -0.0000 -0.0000 0.0000 -0.0000
 -81.2502 32.3121 -1.6540 141.6005 70.0423 -135.7553 -25.8623 2.2057 -4.3657 19.2545 -0.0000 0.0000 -1.9582 16.4813 -8.5606 12.9369 0.0000 0.0000 -25.2271 -10.0038 -3.2742 26.9228 -0.0000 0.0000 -17.8868 -19.9715 17.0395 19.5196 0.0000 0.0000 -7.9885 5.0964 -8.6594 12.9542 -5.8938 -1.3496 -25.9012 4.3771 -7.5429 7.2270 -41.8785 2.3487 11.9780 11.3225 0.1692 -37.4078 -48.1147 -76.8470 -0.0001 -19.7076 -0.0000 7.4885 -19.2219 5.2781 -0.0000 -0.0000 0.0000 -0.0000 -0.0000 0.0000 15.5880 -11.9302 -2.6543 -20.6107 45.7250 65.1362 -0.0002 49.7067 0.0001 16.6966 -3.2824 -10.8242 -0.0000 0.0000 -0.0000 -0.0000 0.0000 -0.0000
 -82.2155 32.4119 -1.7024 140.2265 71.2665 -134.9772 -24.2994 1.7291 -3.3885 26.3118 -0.0000 0.0000 -6.1856 20.1094 -7.5844 11.6868 0.0000 0.0000 -25.2862 -9.6066 -2.7706 24.7068 -0.0000 0.0000 -16.2880 -19.3933 17.8224 19.5196 0.0000 0.0000 -8.0051 4.4074 -8.5448 12.6134 -6.1855 0.2229 -25.9558 6.4757 -6.5477 6.2893 -41.8014 0.4621 10.5577 10.0557 1.6280 -40.6588 -50.0161 -77.9987 -0.0001 -20.4570 -0.0000 7.1250 -18.5813 3.5026 -0.0000 0.0000 -0.0000 -0.0000 0.0000 -0.0000 16.2821 -13.0794 -1.9457 -16.8417 44.9687 63.9449 -0.0002 48.8597 0.0001 18.0927 -2.6683 -12.8794 -0.0000 0.0000 -0.0000 -0.0000 0.0000 -0.0000
 -83.1540 32.4892 -1.7149 135.5378 73.0737 -131.3648 -23.0538 1.8338 -1.7216 35.7282 -0.0000 0.0000 -6.6679 20.5190 -6.1295 9.0685 -0.0000 0.0000 -25.0050 -9.1388 -1.4671 21.5636 0.0000 0.0000 -14.9371 -18.5034 19.2238 19.5196 -0.0000 0.0000 -8.0383 3.8237 -8.5612 12.2821 -6.1852 2.5410 -26.5623 8.9607 -5.4814 5.2193 -41.4806 -1.2731 9.8039 9.7374 2.5364 -43.0735 -52.1726 -77.8031 -0.0001 -21.9428 -0.0000 6.0030 -17.8049 1.5371 -0.0000 0.0000 -0.0000 -0.0000 0.0000 -0.0000 16.5101 -14.2203 -1.3721 -12.9169 44.1466 62.0765 -0.0002 48.1526 0.0001 19.7903 -2.9947 -14.4263 -0.0000 0.0000 -0.0000 -0.0000 0.0000 -0.0000
 -84.1701 32.5261 -1.7932 127.5187 74.7822 -123.6688 -21.7922 2.6515 -1.1853 44.8254 -0.0000 0.0000 -1.1644 17.4751 -3.1300 4.4038 0.0000 0.0000 -25.6587 -9.2199 -1.0930 19.1169 -0.0000 0.0000 -13.5717 -17.1622 20.5229 19.5196 -0.0000 0.0000 -8.1231 3.2530 -8.7380 12.1215 -6.3500 4.1878 -26.7849 12.1855 -3.8764 2.5928 -41.2961 -3.3941 9.2024 9.7941 3.7802 -44.2810 -52.7901 -76.5607 -0.0001 -23.9475 -0.0000 5.3293 -17.8894 0.5255 -0.0000 -0.0000 0.0000 -0.0000 -0.0000 0.0000 16.7533 -15.0386 -1.0589 -10.1161 42.7616 60.5064 -0.0002 47.4861 0.0001 20.6783 -3.1490 -15.6906 -0.0000 0.0000 -0.0000 -0.0000 0.0000 -0.0000
